<svg width="33" height="33" viewBox="0 0 33 33" fill="none" xmlns="http://www.w3.org/2000/svg">
<path d="M26.125 6.875H27.5C29.0194 6.875 30.25 8.10562 30.25 9.625V26.125C30.25 27.6444 29.0194 28.875 27.5 28.875H5.5C3.98062 28.875 2.75 27.6444 2.75 26.125V9.625C2.75 8.10562 3.98062 6.875 5.5 6.875H6.875" stroke="#323232" stroke-width="2" stroke-linecap="round" stroke-linejoin="round"/>
<path d="M16.5 8.25C16.5 5.97163 14.6534 4.125 12.375 4.125H8.25C7.491 4.125 6.875 4.741 6.875 5.5V23.375C6.875 24.134 7.491 24.75 8.25 24.75H12.375C14.6534 24.75 16.5 26.5966 16.5 28.875C16.5 26.5966 18.3466 24.75 20.625 24.75H24.75C25.509 24.75 26.125 24.134 26.125 23.375V5.5C26.125 4.741 25.509 4.125 24.75 4.125H20.625C18.3466 4.125 16.5 5.97163 16.5 8.25Z" stroke="#323232" stroke-width="2" stroke-linecap="round" stroke-linejoin="round"/>
<path d="M16.5 8.25V28.875" stroke="#323232" stroke-width="2" stroke-linecap="round" stroke-linejoin="round"/>
</svg>
