<svg width="430" height="497" viewBox="0 0 430 497" fill="none" xmlns="http://www.w3.org/2000/svg">
<g filter="url(#filter0_d)">
<rect x="61" y="49" width="308" height="375" fill="url(#paint0_linear)"/>
</g>
<path d="M99 88H45L51.3423 75H99V88Z" fill="#ED3F56"/>
<path d="M208.597 227.409H214.837C218.344 227.409 220.126 228.842 220.126 231.637C220.126 233.561 219.334 234.685 217.544 235.2C219.603 235.635 220.711 236.839 220.711 239.016C220.711 242.183 218.859 243.656 215.169 243.656H208.597V227.409ZM212.105 229.919V234.091H214.259C216.016 234.091 216.689 233.45 216.689 231.993C216.689 230.536 215.937 229.919 214.235 229.919H212.105ZM212.105 236.451V241.114H214.583C216.365 241.114 217.141 240.267 217.141 238.81C217.141 237.227 216.349 236.435 214.385 236.435H212.105V236.451ZM233.982 231.764V243.64H230.767V241.819C230.433 242.499 229.905 243.064 229.249 243.443C228.594 243.822 227.841 243.998 227.085 243.949C224.377 243.949 223.126 241.954 223.126 239.467V231.764H226.333V238.961C226.333 240.544 227.006 241.336 228.36 241.336C229.714 241.336 230.735 240.465 230.735 238.699V231.732H233.942L233.982 231.764ZM236.309 239.943H239.294C239.445 240.996 239.92 241.605 241.353 241.605C242.604 241.605 243.182 241.146 243.182 240.323C243.182 239.499 242.509 239.143 240.807 238.913C239.619 238.816 238.478 238.409 237.497 237.733C237.139 237.422 236.861 237.03 236.686 236.589C236.511 236.148 236.445 235.672 236.491 235.2C236.491 232.611 239.025 231.486 241.1 231.486C243.657 231.486 245.589 232.508 245.913 235.176H242.96C242.942 234.959 242.88 234.747 242.776 234.555C242.672 234.363 242.53 234.195 242.359 234.06C242.187 233.926 241.989 233.828 241.778 233.773C241.567 233.719 241.347 233.708 241.131 233.743C240.078 233.743 239.476 234.258 239.476 234.97C239.476 235.683 240.031 236.023 241.733 236.277C244.211 236.633 246.246 237.33 246.246 239.99C246.246 242.65 244.441 243.949 241.361 243.949C238.281 243.949 236.396 242.54 236.301 239.99L236.309 239.943ZM248.392 228.359C248.385 227.996 248.487 227.639 248.684 227.334C248.882 227.029 249.165 226.79 249.499 226.647C249.832 226.503 250.201 226.463 250.558 226.53C250.915 226.597 251.243 226.768 251.502 227.023C251.761 227.277 251.939 227.603 252.012 227.959C252.085 228.314 252.051 228.684 251.913 229.02C251.776 229.356 251.541 229.643 251.24 229.846C250.939 230.048 250.584 230.156 250.221 230.156C249.981 230.165 249.742 230.125 249.518 230.038C249.294 229.951 249.091 229.819 248.919 229.651C248.748 229.483 248.613 229.282 248.522 229.059C248.432 228.837 248.387 228.599 248.392 228.359ZM251.828 231.764V243.64H248.661V231.764H251.828ZM258.297 231.764V233.656C258.652 232.968 259.197 232.396 259.869 232.01C260.54 231.624 261.308 231.44 262.081 231.479C262.6 231.46 263.117 231.548 263.601 231.737C264.084 231.926 264.524 232.213 264.892 232.579C265.691 233.566 266.085 234.82 265.993 236.087V243.648H262.754V236.522C262.754 234.883 262.129 234.147 260.696 234.147C259.263 234.147 258.32 235.018 258.32 236.76V243.624H255.09V231.748H258.32L258.297 231.764ZM279.928 239.911C279.556 242.476 277.553 243.87 274.385 243.87C273.579 243.914 272.772 243.788 272.017 243.5C271.262 243.212 270.576 242.768 270.004 242.198C269.432 241.627 268.986 240.943 268.696 240.188C268.406 239.434 268.278 238.627 268.321 237.821C268.321 233.862 270.83 231.439 274.306 231.439C277.988 231.439 279.967 234.052 279.967 237.512V238.407H271.575C271.678 240.402 272.699 241.51 274.48 241.51C275.985 241.51 276.713 240.869 276.911 239.871H279.944L279.928 239.911ZM274.314 233.767C272.857 233.767 271.883 234.741 271.63 236.435H276.84C276.713 234.614 275.834 233.767 274.306 233.767H274.314ZM281.535 239.943H284.52C284.671 240.996 285.146 241.605 286.579 241.605C287.83 241.605 288.408 241.146 288.408 240.323C288.408 239.499 287.735 239.143 286.032 238.913C284.845 238.816 283.704 238.409 282.723 237.733C282.365 237.422 282.087 237.03 281.912 236.589C281.737 236.148 281.67 235.672 281.717 235.2C281.717 232.611 284.251 231.486 286.325 231.486C288.883 231.486 290.815 232.508 291.139 235.176H288.186C288.168 234.959 288.105 234.747 288.002 234.555C287.898 234.363 287.756 234.195 287.585 234.06C287.413 233.926 287.215 233.828 287.004 233.773C286.793 233.719 286.572 233.708 286.357 233.743C285.304 233.743 284.702 234.258 284.702 234.97C284.702 235.683 285.256 236.023 286.959 236.277C289.437 236.633 291.472 237.33 291.472 239.99C291.472 242.65 289.667 243.949 286.587 243.949C283.507 243.949 281.622 242.54 281.527 239.99L281.535 239.943ZM293.063 239.943H296.048C296.199 240.996 296.674 241.605 298.107 241.605C299.358 241.605 299.936 241.146 299.936 240.323C299.936 239.499 299.263 239.143 297.561 238.913C296.373 238.816 295.232 238.409 294.251 237.733C293.893 237.422 293.615 237.03 293.44 236.589C293.265 236.148 293.198 235.672 293.245 235.2C293.245 232.611 295.779 231.486 297.853 231.486C300.411 231.486 302.343 232.508 302.667 235.176H299.714C299.696 234.959 299.633 234.747 299.53 234.555C299.426 234.363 299.284 234.195 299.113 234.06C298.941 233.926 298.743 233.828 298.532 233.773C298.321 233.719 298.101 233.708 297.885 233.743C296.832 233.743 296.23 234.258 296.23 234.97C296.23 235.683 296.785 236.023 298.487 236.277C300.965 236.633 303 237.33 303 239.99C303 242.65 301.195 243.949 298.115 243.949C295.035 243.949 293.15 242.54 293.055 239.99L293.063 239.943Z" fill="white"/>
<path d="M222.754 209.357C222.382 213.434 219.468 215.429 215.628 215.429C210.49 215.429 207.631 212.262 207.631 207.155C207.631 202.262 210.917 198.676 215.549 198.676C219.381 198.676 222.192 200.703 222.588 204.598H218.89C218.613 202.627 217.584 201.597 215.557 201.597C213.047 201.597 211.448 203.569 211.448 206.95C211.448 210.536 212.928 212.492 215.581 212.492C216.024 212.533 216.472 212.485 216.896 212.35C217.321 212.215 217.714 211.997 218.053 211.708C218.392 211.418 218.669 211.064 218.869 210.666C219.069 210.267 219.186 209.833 219.215 209.388H222.746L222.754 209.357ZM224.908 199.855C224.906 199.616 224.952 199.379 225.043 199.158C225.135 198.936 225.27 198.736 225.44 198.568C225.611 198.4 225.814 198.269 226.037 198.181C226.259 198.093 226.497 198.052 226.737 198.058C227.093 198.063 227.44 198.173 227.734 198.374C228.028 198.576 228.255 198.86 228.388 199.191C228.521 199.521 228.553 199.884 228.48 200.233C228.407 200.581 228.232 200.901 227.978 201.151C227.724 201.4 227.402 201.569 227.052 201.636C226.702 201.703 226.34 201.665 226.011 201.526C225.683 201.388 225.403 201.155 225.207 200.858C225.01 200.561 224.906 200.212 224.908 199.855ZM228.368 203.292V215.168H225.161V203.292H228.392H228.368ZM232.073 211.645V205.627H230.593V203.3H232.073V200.71H235.28V203.3H237.711V205.627H235.28V211.344C235.245 211.525 235.252 211.712 235.302 211.889C235.351 212.067 235.441 212.231 235.565 212.367C235.689 212.504 235.842 212.61 236.014 212.677C236.186 212.744 236.371 212.77 236.555 212.753C236.974 212.77 237.391 212.7 237.782 212.547V215.081C237.152 215.294 236.491 215.398 235.826 215.39C233.372 215.39 232.065 214.131 232.065 211.653L232.073 211.645ZM239.112 203.292H242.596L245.407 210.418L248.012 203.292H251.115L244.781 219.206H241.677L243.736 213.98L239.096 203.3L239.112 203.292Z" fill="white"/>
<path d="M208.114 265.231H211.55C211.875 267.179 212.881 267.9 214.717 267.9C216.301 267.9 217.322 267.005 217.322 265.746C217.322 264.052 215.62 263.822 214.337 263.616C211.131 263.181 208.597 262.207 208.597 258.668C208.597 255.413 211.653 253.854 214.361 253.854C217.948 253.854 220.054 255.437 220.323 258.699H216.99C216.792 257.266 215.889 256.546 214.329 256.546C212.77 256.546 211.954 257.29 211.954 258.391C211.954 260.085 213.712 260.283 214.884 260.465C218.09 260.924 220.719 261.827 220.719 265.382C220.719 268.786 217.663 270.56 214.654 270.56C211.044 270.56 208.32 268.976 208.09 265.231H208.114ZM231.242 265.794H234.147C233.847 269.024 231.463 270.544 228.605 270.544C227.804 270.582 227.003 270.451 226.255 270.16C225.508 269.868 224.83 269.423 224.265 268.853C223.701 268.282 223.263 267.599 222.979 266.849C222.695 266.098 222.573 265.296 222.619 264.495C222.619 260.536 225.224 258.161 228.637 258.161C231.645 258.161 233.799 259.673 234.1 262.769H231.067C231.054 262.477 230.981 262.19 230.852 261.927C230.724 261.664 230.542 261.43 230.32 261.24C230.097 261.05 229.838 260.908 229.558 260.822C229.278 260.737 228.983 260.709 228.692 260.742C226.99 260.742 225.913 262.025 225.913 264.305C225.913 266.997 226.942 268.098 228.748 268.098C229.065 268.116 229.382 268.07 229.681 267.963C229.981 267.857 230.255 267.691 230.489 267.476C230.723 267.261 230.912 267.002 231.044 266.713C231.176 266.424 231.248 266.111 231.257 265.794H231.242ZM236.428 253.062H239.658V260.315C240.015 259.63 240.562 259.062 241.233 258.68C241.904 258.298 242.672 258.118 243.443 258.161C246.198 258.161 247.354 260.259 247.354 262.745V270.322H244.124V263.197C244.124 261.558 243.498 260.821 242.097 260.821C240.695 260.821 239.666 261.668 239.666 263.434V270.322H236.436V253.062H236.428ZM269.737 270.56C268.928 270.605 268.119 270.48 267.361 270.193C266.603 269.906 265.914 269.463 265.338 268.893C264.762 268.323 264.312 267.638 264.017 266.883C263.722 266.129 263.588 265.32 263.625 264.511C263.625 260.639 266.23 258.177 269.761 258.177C270.573 258.136 271.385 258.266 272.144 258.558C272.903 258.849 273.592 259.297 274.168 259.871C274.744 260.445 275.193 261.133 275.487 261.892C275.78 262.65 275.912 263.461 275.874 264.273C275.874 268.232 273.292 270.608 269.737 270.608V270.56ZM269.737 268.074C271.543 268.074 272.596 266.744 272.596 264.463C272.596 262.033 271.543 260.671 269.737 260.671C267.932 260.671 266.903 261.977 266.903 264.258C266.903 266.72 267.877 268.074 269.737 268.074ZM281.566 253.03V270.322H278.36V253.062H281.566V253.03ZM255.731 270.528C254.922 270.573 254.112 270.448 253.355 270.161C252.597 269.874 251.908 269.431 251.332 268.861C250.756 268.291 250.306 267.607 250.01 266.852C249.715 266.097 249.582 265.289 249.619 264.479C249.619 260.607 252.224 258.145 255.755 258.145C256.567 258.104 257.379 258.234 258.138 258.526C258.896 258.818 259.586 259.265 260.162 259.839C260.737 260.413 261.187 261.102 261.48 261.86C261.774 262.618 261.906 263.43 261.867 264.242C261.867 268.201 259.286 270.576 255.731 270.576V270.528ZM255.731 268.042C257.536 268.042 258.589 266.712 258.589 264.432C258.589 262.001 257.536 260.639 255.731 260.639C253.926 260.639 252.897 261.946 252.897 264.226C252.897 266.688 253.87 268.042 255.731 268.042Z" fill="white"/>
<path d="M193.166 232.547V189H126V232.547C126 264.456 159.579 284.448 159.579 284.448C159.579 284.448 193.158 264.456 193.158 232.547H193.166ZM159.587 280.521C154.575 277.251 129.42 259.657 129.42 232.547V192.428H189.753V232.555C189.753 259.665 164.607 277.258 159.587 280.528V280.521Z" fill="white"/>
<path d="M162.453 265.572H165.359C165.058 268.802 162.675 270.322 159.816 270.322C159.015 270.36 158.214 270.229 157.467 269.938C156.719 269.647 156.041 269.201 155.476 268.631C154.912 268.06 154.474 267.378 154.19 266.627C153.907 265.876 153.784 265.074 153.831 264.273C153.831 260.315 156.436 257.939 159.848 257.939C162.857 257.939 165.01 259.451 165.311 262.547H162.279C162.265 262.255 162.192 261.968 162.064 261.705C161.935 261.442 161.754 261.209 161.531 261.019C161.308 260.828 161.049 260.686 160.769 260.601C160.489 260.515 160.194 260.488 159.903 260.52C158.201 260.52 157.124 261.803 157.124 264.083C157.124 266.775 158.154 267.876 159.959 267.876C160.276 267.894 160.594 267.848 160.893 267.742C161.192 267.635 161.467 267.469 161.701 267.254C161.935 267.039 162.123 266.78 162.255 266.491C162.387 266.202 162.46 265.889 162.469 265.572H162.453Z" fill="white"/>
<path d="M177.425 225.192C174.013 225.192 171.17 227.448 169.579 229.151H163.688L170.379 222.46C172.706 222.532 176.269 222.096 178.668 219.697C182.524 215.92 181.281 209.159 181.281 209.159C181.281 209.159 174.591 207.923 170.743 211.771C168.368 214.099 167.98 217.733 167.98 220.061L161.289 226.775V215.691C162.873 214.107 165.248 211.257 165.248 207.844C165.248 202.468 159.579 198.612 159.579 198.612C159.579 198.612 153.965 202.476 153.965 207.773C153.965 211.185 156.222 214.028 157.924 215.619V226.704L151.234 220.014C151.234 217.686 150.869 214.052 148.47 211.724C144.615 207.868 137.932 209.111 137.932 209.111C137.932 209.111 136.697 215.873 140.474 219.649C142.849 222.025 146.507 222.484 148.835 222.413L155.47 229.151H149.579C147.908 227.48 145.074 225.192 141.732 225.192C136.277 225.192 132.429 230.861 132.429 230.861C132.429 230.861 136.388 236.459 141.732 236.459C145.145 236.459 147.987 234.202 149.579 232.5H157.283L155.612 244.06C155.505 245.069 155.123 246.03 154.507 246.837C153.891 247.644 153.066 248.266 152.12 248.636H150.006V252.112H169.12V248.699H166.942C165.997 248.33 165.172 247.707 164.556 246.9C163.94 246.093 163.558 245.132 163.451 244.123L161.78 232.563H169.555C171.139 234.234 173.918 236.522 177.402 236.522C182.635 236.522 186.705 230.924 186.705 230.924C186.705 230.924 182.73 225.192 177.425 225.192ZM173.134 214.107C174.44 212.729 176.626 212.365 178.075 212.286C178.003 213.743 177.639 215.92 176.254 217.227C174.868 218.533 172.762 218.969 171.313 219.048C171.384 217.662 171.756 215.485 173.134 214.178V214.107ZM142.825 217.274C141.519 215.968 141.154 213.782 141.083 212.334C142.54 212.405 144.646 212.769 146.024 214.155C147.402 215.54 147.694 217.646 147.766 219.095C146.317 219.048 144.203 218.684 142.825 217.274ZM141.732 233.11C139.84 233.11 138.027 231.874 136.982 230.932C138.229 229.615 139.923 228.81 141.732 228.676C143.625 228.676 145.367 229.911 146.483 230.853C145.367 231.843 143.625 233.11 141.732 233.11ZM157.291 207.773C157.291 205.881 158.597 204.139 159.547 203.022C160.569 204.115 161.804 205.857 161.804 207.773C161.804 209.689 160.569 211.478 159.547 212.571C158.597 211.486 157.291 209.673 157.291 207.773ZM159.508 248.699H157.33C158.858 246.443 158.858 244.559 159.294 240.703H159.801C160.236 244.559 160.165 246.443 161.764 248.699H159.508ZM177.425 233.11C175.616 232.975 173.922 232.171 172.675 230.853C173.696 229.911 175.509 228.676 177.425 228.676C179.341 228.676 181.06 229.911 182.176 230.932C181.06 231.843 179.302 233.11 177.425 233.11Z" fill="white"/>
<defs>
<filter id="filter0_d" x="0" y="0" width="430" height="497" filterUnits="userSpaceOnUse" color-interpolation-filters="sRGB">
<feFlood flood-opacity="0" result="BackgroundImageFix"/>
<feColorMatrix in="SourceAlpha" type="matrix" values="0 0 0 0 0 0 0 0 0 0 0 0 0 0 0 0 0 0 127 0"/>
<feOffset dy="12"/>
<feGaussianBlur stdDeviation="30.5"/>
<feColorMatrix type="matrix" values="0 0 0 0 0.253125 0 0 0 0 0.385714 0 0 0 0 0.5625 0 0 0 0.19 0"/>
<feBlend mode="normal" in2="BackgroundImageFix" result="effect1_dropShadow"/>
<feBlend mode="normal" in="SourceGraphic" in2="effect1_dropShadow" result="shape"/>
</filter>
<linearGradient id="paint0_linear" x1="215" y1="49" x2="215" y2="424" gradientUnits="userSpaceOnUse">
<stop stop-color="#8FB2DF"/>
<stop offset="1" stop-color="#7B9ECC"/>
</linearGradient>
</defs>
</svg>
