<svg width="42" height="42" viewBox="0 0 42 42" fill="none" xmlns="http://www.w3.org/2000/svg">
<path d="M36.3868 16.6658C37.7694 18.0484 37.7694 20.2899 36.3868 21.6725C35.0043 23.055 32.7627 23.055 31.3802 21.6725C29.9976 20.2899 29.9976 18.0484 31.3802 16.6658C32.7627 15.2833 35.0043 15.2833 36.3868 16.6658Z" stroke="#323232" stroke-width="2.5" stroke-linecap="round" stroke-linejoin="round"/>
<path d="M24.8547 10.3466C26.9835 12.4755 26.9835 15.927 24.8547 18.0559C22.7259 20.1847 19.2743 20.1847 17.1455 18.0559C15.0166 15.927 15.0166 12.4755 17.1455 10.3466C19.2743 8.21779 22.7258 8.21779 24.8547 10.3466" stroke="#323232" stroke-width="2.5" stroke-linecap="round" stroke-linejoin="round"/>
<path d="M10.6198 16.6658C12.0023 18.0484 12.0023 20.2899 10.6198 21.6725C9.2372 23.055 6.99564 23.055 5.61309 21.6725C4.23053 20.2899 4.23053 18.0484 5.61309 16.6658C6.99564 15.2833 9.2372 15.2833 10.6198 16.6658Z" stroke="#323232" stroke-width="2.5" stroke-linecap="round" stroke-linejoin="round"/>
<path d="M40.2499 33.25V31.332C40.2499 28.9153 38.2916 26.957 35.8749 26.957H34.4731" stroke="#323232" stroke-width="2.5" stroke-linecap="round" stroke-linejoin="round"/>
<path d="M1.75 33.25V31.332C1.75 28.9153 3.70825 26.957 6.125 26.957H7.52675" stroke="#323232" stroke-width="2.5" stroke-linecap="round" stroke-linejoin="round"/>
<path d="M30.3433 33.25V30.4482C30.3433 27.0655 27.601 24.3232 24.2183 24.3232H17.78C14.3973 24.3232 11.655 27.0655 11.655 30.4482V33.25" stroke="#323232" stroke-width="2.5" stroke-linecap="round" stroke-linejoin="round"/>
</svg>
