<svg width="171" height="171" viewBox="0 0 171 171" fill="none" xmlns="http://www.w3.org/2000/svg">
<circle cx="85.5" cy="85.5" r="85.5" fill="#ED3F56"/>
<path d="M40.438 102.024V109.277C40.438 123.283 47.4408 131.286 60.9464 131.286C74.4519 131.286 81.4547 123.283 81.4547 109.277V89.7691C81.4547 76.8888 76.3276 69.7609 66.1985 69.7609C60.6963 69.7609 56.6946 72.0119 54.1936 76.1385L55.3191 55.255H79.2038V42.7499H42.939L40.438 93.5206H53.4433V90.8946C53.4433 84.642 56.1944 82.266 60.5712 82.266C64.948 82.266 67.6991 84.642 67.6991 90.8946V110.152C67.6991 116.405 64.948 118.656 60.5712 118.656C56.1944 118.656 53.4433 116.405 53.4433 110.152V102.024H40.438Z" fill="white"/>
<path d="M89.7687 109.277C89.7687 123.283 97.1467 131.286 110.652 131.286C124.158 131.286 131.536 123.283 131.536 109.277V93.2705C131.536 80.3903 126.409 73.2624 116.279 73.2624C110.152 73.2624 105.9 76.0135 103.524 81.0155V65.009C103.524 56.6306 106.275 54.2546 111.152 54.2546C115.529 54.2546 118.28 56.6306 118.28 62.8831V66.0094H131.286V63.7585C131.286 49.7528 124.283 41.7495 110.777 41.7495C96.5214 41.7495 89.7687 49.7528 89.7687 64.5088V109.277ZM110.652 85.7675C115.029 85.7675 117.78 88.1434 117.78 94.396V110.152C117.78 116.405 115.029 118.656 110.652 118.656C106.275 118.656 103.524 116.405 103.524 110.152V94.396C103.524 88.1434 106.275 85.7675 110.652 85.7675Z" fill="white"/>
</svg>
