<svg width="224" height="120" viewBox="0 0 224 120" fill="none" xmlns="http://www.w3.org/2000/svg">
<path d="M104.368 48.2888H112.251C116.683 48.2888 118.934 50.0906 118.934 53.6045C118.934 56.0234 117.934 57.4369 115.673 58.0839C118.274 58.6314 119.674 60.1445 119.674 62.8819C119.674 66.8637 117.333 68.7152 112.671 68.7152H104.368V48.2888ZM108.8 51.4443V56.6903H111.521C113.742 56.6903 114.592 55.884 114.592 54.0524C114.592 52.2208 113.642 51.4443 111.491 51.4443H108.8ZM108.8 59.6567V65.5198H111.931C114.182 65.5198 115.162 64.4547 115.162 62.6231C115.162 60.6322 114.162 59.6368 111.681 59.6368H108.8V59.6567ZM136.442 53.7637V68.6953H132.38V66.4058C131.958 67.2602 131.291 67.9708 130.463 68.4475C129.635 68.9242 128.683 69.1456 127.728 69.0835C124.307 69.0835 122.726 66.575 122.726 63.4493V53.7637H126.778V62.8122C126.778 64.8031 127.628 65.7986 129.339 65.7986C131.05 65.7986 132.34 64.7036 132.34 62.4837V53.7239H136.392L136.442 53.7637ZM139.383 64.0466H143.155C143.345 65.3705 143.945 66.137 145.756 66.137C147.337 66.137 148.067 65.5596 148.067 64.5244C148.067 63.4891 147.217 63.0412 145.066 62.7525C143.566 62.6297 142.124 62.1184 140.884 61.2693C140.432 60.8779 140.081 60.3845 139.86 59.8302C139.639 59.276 139.554 58.6772 139.613 58.0839C139.613 54.8288 142.815 53.4153 145.436 53.4153C148.667 53.4153 151.108 54.6994 151.519 58.054H147.787C147.764 57.7807 147.685 57.515 147.554 57.2735C147.424 57.0321 147.244 56.8201 147.027 56.6509C146.81 56.4818 146.56 56.359 146.293 56.2904C146.026 56.2218 145.748 56.2088 145.476 56.2523C144.145 56.2523 143.385 56.8993 143.385 57.7952C143.385 58.6911 144.085 59.1192 146.236 59.4377C149.368 59.8856 151.939 60.7616 151.939 64.1063C151.939 67.451 149.658 69.0835 145.766 69.0835C141.874 69.0835 139.493 67.3116 139.373 64.1063L139.383 64.0466ZM154.65 49.4833C154.642 49.0269 154.771 48.5785 155.02 48.1952C155.269 47.8118 155.627 47.5109 156.049 47.3307C156.47 47.1506 156.936 47.0993 157.387 47.1835C157.838 47.2677 158.253 47.4835 158.581 47.8034C158.908 48.1234 159.132 48.533 159.224 48.9801C159.317 49.4272 159.273 49.8915 159.1 50.314C158.926 50.7365 158.63 51.098 158.249 51.3525C157.868 51.607 157.42 51.7429 156.961 51.743C156.658 51.7538 156.356 51.7032 156.073 51.594C155.791 51.4848 155.533 51.3194 155.317 51.1079C155.101 50.8964 154.93 50.6433 154.815 50.364C154.701 50.0846 154.644 49.785 154.65 49.4833ZM158.992 53.7637V68.6953H154.99V53.7637H158.992ZM167.166 53.7637V56.1428C167.614 55.2776 168.304 54.5593 169.152 54.0739C170 53.5884 170.971 53.3563 171.948 53.4054C172.603 53.3818 173.257 53.4925 173.868 53.7305C174.479 53.9685 175.034 54.3287 175.499 54.789C176.509 56.0297 177.007 57.6064 176.89 59.1988V68.7052H172.798V59.7463C172.798 57.6857 172.008 56.76 170.197 56.76C168.386 56.76 167.196 57.8549 167.196 60.0449V68.6754H163.114V53.7438H167.196L167.166 53.7637ZM194.498 64.0068C194.028 67.232 191.496 68.9839 187.495 68.9839C186.475 69.0398 185.455 68.8815 184.502 68.5194C183.548 68.1572 182.681 67.5993 181.958 66.882C181.235 66.1646 180.672 65.3038 180.306 64.3557C179.94 63.4075 179.778 62.3933 179.831 61.3788C179.831 56.4016 183.003 53.3556 187.395 53.3556C192.047 53.3556 194.548 56.6405 194.548 60.9906V62.1154H183.943C184.073 64.6239 185.364 66.0175 187.615 66.0175C189.516 66.0175 190.436 65.2112 190.686 63.957H194.518L194.498 64.0068ZM187.405 56.2822C185.564 56.2822 184.333 57.5066 184.013 59.6368H190.596C190.436 57.3473 189.326 56.2822 187.395 56.2822H187.405ZM196.529 64.0466H200.3C200.491 65.3705 201.091 66.137 202.902 66.137C204.482 66.137 205.213 65.5596 205.213 64.5244C205.213 63.4891 204.362 63.0412 202.211 62.7525C200.711 62.6297 199.269 62.1184 198.029 61.2693C197.577 60.8779 197.226 60.3845 197.005 59.8302C196.784 59.276 196.7 58.6772 196.759 58.0839C196.759 54.8288 199.96 53.4153 202.581 53.4153C205.813 53.4153 208.254 54.6994 208.664 58.054H204.932C204.91 57.7807 204.831 57.515 204.7 57.2735C204.569 57.0321 204.389 56.8201 204.172 56.6509C203.955 56.4818 203.706 56.359 203.439 56.2904C203.172 56.2218 202.894 56.2088 202.621 56.2523C201.291 56.2523 200.531 56.8993 200.531 57.7952C200.531 58.6911 201.231 59.1192 203.382 59.4377C206.513 59.8856 209.084 60.7616 209.084 64.1063C209.084 67.451 206.803 69.0835 202.912 69.0835C199.02 69.0835 196.639 67.3116 196.519 64.1063L196.529 64.0466ZM211.095 64.0466H214.867C215.057 65.3705 215.657 66.137 217.468 66.137C219.049 66.137 219.779 65.5596 219.779 64.5244C219.779 63.4891 218.929 63.0412 216.778 62.7525C215.278 62.6297 213.836 62.1184 212.596 61.2693C212.144 60.8779 211.793 60.3845 211.571 59.8302C211.35 59.276 211.266 58.6772 211.325 58.0839C211.325 54.8288 214.527 53.4153 217.148 53.4153C220.379 53.4153 222.82 54.6994 223.231 58.054H219.499C219.476 57.7807 219.397 57.515 219.266 57.2735C219.135 57.0321 218.956 56.8201 218.739 56.6509C218.522 56.4818 218.272 56.359 218.005 56.2904C217.738 56.2218 217.46 56.2088 217.188 56.2523C215.857 56.2523 215.097 56.8993 215.097 57.7952C215.097 58.6911 215.797 59.1192 217.948 59.4377C221.08 59.8856 223.651 60.7616 223.651 64.1063C223.651 67.451 221.37 69.0835 217.478 69.0835C213.586 69.0835 211.205 67.3116 211.085 64.1063L211.095 64.0466Z" fill="white"/>
<path d="M122.254 25.5927C121.784 30.7192 118.102 33.2277 113.25 33.2277C106.757 33.2277 103.146 29.2459 103.146 22.8254C103.146 16.6735 107.297 12.1642 113.15 12.1642C117.992 12.1642 121.544 14.7125 122.044 19.6101H117.372C117.022 17.1314 115.721 15.8374 113.16 15.8374C109.989 15.8374 107.968 18.316 107.968 22.5665C107.968 27.0759 109.838 29.5346 113.19 29.5346C113.751 29.5863 114.316 29.5257 114.852 29.3564C115.389 29.187 115.886 28.9123 116.314 28.5485C116.742 28.1847 117.093 27.7392 117.345 27.2384C117.597 26.7375 117.746 26.1915 117.782 25.6325H122.244L122.254 25.5927ZM124.975 13.6474C124.972 13.3465 125.031 13.0482 125.146 12.7701C125.262 12.4921 125.433 12.2401 125.648 12.0292C125.864 11.8183 126.12 11.6528 126.402 11.5426C126.683 11.4324 126.984 11.3797 127.286 11.3878C127.736 11.3937 128.175 11.532 128.546 11.7854C128.918 12.0388 129.205 12.3959 129.373 12.8116C129.541 13.2274 129.581 13.6833 129.489 14.1218C129.397 14.5604 129.176 14.9619 128.855 15.276C128.534 15.59 128.126 15.8024 127.684 15.8865C127.242 15.9705 126.784 15.9224 126.37 15.7483C125.955 15.5742 125.601 15.2817 125.353 14.9079C125.105 14.534 124.973 14.0954 124.975 13.6474ZM129.347 17.9676V32.8992H125.295V17.9676H129.377H129.347ZM134.029 28.4695V20.9042H132.158V17.9776H134.029V14.7225H138.081V17.9776H141.152V20.9042H138.081V28.0912C138.037 28.3188 138.046 28.5535 138.108 28.7768C138.171 29.0002 138.285 29.2059 138.441 29.3778C138.597 29.5498 138.792 29.6831 139.009 29.7674C139.226 29.8516 139.46 29.8844 139.692 29.8631C140.221 29.8847 140.749 29.7966 141.242 29.6043V32.7897C140.447 33.0569 139.611 33.1881 138.771 33.1779C135.67 33.1779 134.019 31.5952 134.019 28.4794L134.029 28.4695ZM142.923 17.9676H147.325L150.877 26.9266L154.168 17.9676H158.09L150.086 37.9759H146.165L148.766 31.406L142.903 17.9776L142.923 17.9676Z" fill="white"/>
<path d="M103.756 95.8407H108.098C108.508 98.2894 109.779 99.1953 112.1 99.1953C114.101 99.1953 115.391 98.0704 115.391 96.4877C115.391 94.3575 113.24 94.0688 111.62 93.81C107.568 93.2625 104.366 92.0381 104.366 87.5885C104.366 83.4972 108.228 81.5362 111.65 81.5362C116.182 81.5362 118.843 83.5271 119.183 87.6283H114.971C114.721 85.8266 113.58 84.9207 111.61 84.9207C109.639 84.9207 108.608 85.8564 108.608 87.2401C108.608 89.3703 110.829 89.6192 112.31 89.8481C116.362 90.4255 119.683 91.5603 119.683 96.0298C119.683 100.31 115.821 102.54 112.02 102.54C107.458 102.54 104.016 100.549 103.726 95.8407H103.756ZM132.979 96.5474H136.651C136.271 100.609 133.259 102.52 129.648 102.52C128.635 102.568 127.623 102.403 126.679 102.037C125.734 101.67 124.877 101.11 124.164 100.393C123.451 99.6762 122.897 98.8179 122.539 97.8741C122.18 96.9303 122.026 95.9221 122.084 94.9149C122.084 89.9377 125.376 86.9514 129.688 86.9514C133.489 86.9514 136.211 88.8527 136.591 92.7448H132.759C132.742 92.3772 132.65 92.0169 132.487 91.6862C132.325 91.3556 132.095 91.0617 131.814 90.8228C131.533 90.5839 131.205 90.405 130.851 90.2973C130.497 90.1895 130.125 90.1552 129.758 90.1965C127.607 90.1965 126.246 91.8091 126.246 94.676C126.246 98.0605 127.547 99.4442 129.828 99.4442C130.228 99.4669 130.63 99.4095 131.008 99.2753C131.386 99.141 131.733 98.9327 132.029 98.6626C132.324 98.3926 132.563 98.0662 132.729 97.7029C132.896 97.3395 132.988 96.9467 132.999 96.5474H132.979ZM139.532 80.5408H143.614V89.659C144.065 88.7977 144.756 88.0842 145.604 87.604C146.452 87.1237 147.422 86.8971 148.396 86.9514C151.878 86.9514 153.338 89.5893 153.338 92.715V102.241H149.256V93.2824C149.256 91.2218 148.466 90.2961 146.695 90.2961C144.924 90.2961 143.624 91.3612 143.624 93.581V102.241H139.542V80.5408H139.532ZM181.621 102.54C180.598 102.597 179.575 102.439 178.618 102.078C177.66 101.717 176.79 101.161 176.062 100.444C175.334 99.7272 174.765 98.8666 174.393 97.9177C174.02 96.9688 173.851 95.9526 173.897 94.9348C173.897 90.0671 177.189 86.9713 181.651 86.9713C182.677 86.9202 183.702 87.0833 184.661 87.4501C185.62 87.8169 186.492 88.3793 187.219 89.1013C187.947 89.8232 188.514 90.6886 188.885 91.6418C189.256 92.5951 189.423 93.615 189.374 94.6362C189.374 99.6134 186.113 102.6 181.621 102.6V102.54ZM181.621 99.4143C183.902 99.4143 185.232 97.742 185.232 94.8751C185.232 91.8191 183.902 90.1069 181.621 90.1069C179.34 90.1069 178.039 91.7494 178.039 94.6163C178.039 97.7121 179.27 99.4143 181.621 99.4143ZM196.567 80.501V102.241H192.516V80.5408H196.567V80.501ZM163.923 102.5C162.901 102.557 161.878 102.4 160.92 102.039C159.963 101.677 159.092 101.121 158.364 100.404C157.636 99.6873 157.067 98.8268 156.695 97.8779C156.322 96.929 156.153 95.9128 156.199 94.895C156.199 90.0273 159.491 86.9315 163.953 86.9315C164.979 86.8803 166.005 87.0434 166.964 87.4103C167.923 87.7771 168.794 88.3396 169.521 89.0615C170.249 89.7834 170.816 90.6488 171.187 91.602C171.559 92.5553 171.725 93.5752 171.676 94.5964C171.676 99.5736 168.415 102.56 163.923 102.56V102.5ZM163.923 99.3745C166.204 99.3745 167.535 97.7021 167.535 94.8353C167.535 91.7793 166.204 90.0671 163.923 90.0671C161.642 90.0671 160.341 91.7096 160.341 94.5764C160.341 97.6723 161.572 99.3745 163.923 99.3745Z" fill="white"/>
<path d="M84.8678 54.7491V0H0V54.7491C0 94.8652 42.4289 120 42.4289 120C42.4289 120 84.8578 94.8652 84.8578 54.7491H84.8678ZM42.4389 115.063C36.1061 110.951 4.32193 88.8329 4.32193 54.7491V4.31025H80.5559V54.759C80.5559 88.8428 48.7817 110.961 42.4389 115.073V115.063Z" fill="white"/>
<path d="M46.0605 96.2685H49.7321C49.3519 100.33 46.3406 102.241 42.729 102.241C41.7162 102.289 40.7046 102.124 39.7599 101.758C38.8152 101.391 37.9584 100.832 37.2453 100.114C36.5321 99.3973 35.9784 98.539 35.6201 97.5952C35.2619 96.6514 35.107 95.6432 35.1657 94.636C35.1657 89.6588 38.4571 86.6725 42.769 86.6725C46.5707 86.6725 49.2919 88.5738 49.6721 92.4659H45.8404C45.8235 92.0983 45.731 91.7379 45.5684 91.4073C45.4059 91.0767 45.1768 90.7828 44.8954 90.5439C44.614 90.3049 44.2863 90.1261 43.9326 90.0184C43.5788 89.9106 43.2067 89.8763 42.8391 89.9176C40.6881 89.9176 39.3275 91.5302 39.3275 94.3971C39.3275 97.7816 40.6281 99.1652 42.9091 99.1652C43.3098 99.188 43.7111 99.1306 44.0891 98.9964C44.4672 98.8621 44.8143 98.6538 45.11 98.3837C45.4057 98.1136 45.644 97.7873 45.8107 97.424C45.9773 97.0606 46.0691 96.6677 46.0805 96.2685H46.0605Z" fill="white"/>
<path d="M64.9788 45.5017C60.6669 45.5017 57.0753 48.3387 55.0644 50.4789H47.6211L56.0749 42.0674C59.0162 42.157 63.5182 41.6095 66.5495 38.5933C71.4217 33.8451 69.851 25.3441 69.851 25.3441C69.851 25.3441 61.3972 23.7912 56.5351 28.629C53.5337 31.5556 53.0435 36.1247 53.0435 39.0512L44.5898 47.4926V33.5564C46.5906 31.5656 49.592 27.982 49.592 23.6916C49.592 16.9326 42.4288 12.0848 42.4288 12.0848C42.4288 12.0848 35.3356 16.9426 35.3356 23.6021C35.3356 27.8924 38.1869 31.466 40.3379 33.4668V47.403L31.8841 38.9915C31.8841 36.0649 31.4239 31.4959 28.3925 28.5693C23.5204 23.7215 15.0766 25.2843 15.0766 25.2843C15.0766 25.2843 13.5159 33.7854 18.2881 38.5336C21.2894 41.5199 25.9114 42.0973 28.8528 42.0077L37.2365 50.4789H29.7932C27.6822 48.3785 24.1006 45.5017 19.8788 45.5017C12.9857 45.5017 8.12354 52.629 8.12354 52.629C8.12354 52.629 13.1258 59.6668 19.8788 59.6668C24.1907 59.6668 27.7823 56.8298 29.7932 54.6896H39.5275L37.4166 69.2229C37.2812 70.492 36.7982 71.6998 36.0202 72.7144C35.2422 73.729 34.199 74.5115 33.0046 74.9766H30.3334V79.3466H54.4842V75.0562H51.7329C50.5385 74.5912 49.4954 73.8086 48.7174 72.794C47.9394 71.7794 47.4563 70.5717 47.321 69.3026L45.21 54.7692H55.0344C57.0353 56.8696 60.5469 59.7464 64.9488 59.7464C71.5618 59.7464 76.704 52.7086 76.704 52.7086C76.704 52.7086 71.6818 45.5017 64.9788 45.5017ZM59.5564 31.5656C61.2071 29.8335 63.9684 29.3756 65.7992 29.2761C65.7092 31.1077 65.2489 33.8451 63.4982 35.4876C61.7474 37.1301 59.0862 37.6775 57.2554 37.7771C57.3454 36.0351 57.8156 33.2976 59.5564 31.6551V31.5656ZM21.2594 35.5473C19.6086 33.9048 19.1484 31.1574 19.0584 29.3358C20.8992 29.4254 23.5604 29.8833 25.3012 31.6253C27.0419 33.3673 27.4121 36.0152 27.5021 37.8368C25.6713 37.7771 23.0001 37.3192 21.2594 35.5473ZM19.8788 55.4561C17.4877 55.4561 15.1967 53.9032 13.8761 52.7186C15.4521 51.0621 17.5926 50.0505 19.8788 49.8816C22.2698 49.8816 24.4708 51.4345 25.8814 52.6191C24.4708 53.8634 22.2698 55.4561 19.8788 55.4561ZM39.5375 23.6021C39.5375 21.223 41.1882 19.033 42.3888 17.6294C43.6794 19.0031 45.24 21.1931 45.24 23.6021C45.24 26.011 43.6794 28.2607 42.3888 29.6344C41.1882 28.2707 39.5375 25.9911 39.5375 23.6021ZM42.3388 75.0562H39.5875C41.5184 72.2192 41.5184 69.8501 42.0686 65.0023H42.7089C43.2592 69.8501 43.1691 72.2192 45.19 75.0562H42.3388ZM64.9788 55.4561C62.6927 55.2872 60.5521 54.2755 58.9762 52.6191C60.2667 51.4345 62.5578 49.8816 64.9788 49.8816C67.3999 49.8816 69.5709 51.4345 70.9815 52.7186C69.5709 53.8634 67.3499 55.4561 64.9788 55.4561Z" fill="white"/>
</svg>
