<svg width="181" height="26" viewBox="0 0 181 26" fill="none" xmlns="http://www.w3.org/2000/svg">
<path d="M14.8163 25.4254H6.25736V7.21823H0V0H21.0737V7.21823H14.8163V25.4254Z" fill="#E13C52"/>
<path d="M23.6848 0H41.1982V7.1105H31.7403V9.30111H40.6229V15.9448H31.7403V18.3149H41.8096V25.4254H23.6848V0Z" fill="#E13C52"/>
<path d="M52.9412 11.0608L53.3368 25.4254H45.3532V0H56.5374L61.1405 13.6823H61.3203L65.3121 0H76.8558V25.4254H68.5487L68.8004 11.1326L68.5846 11.0967L63.8377 25.4254H57.7961L53.121 11.0608H52.9412Z" fill="#E13C52"/>
<path d="M88.6806 0H97.7789L107.704 25.4254H98.3903L97.0597 21.6906H88.9682L87.7096 25.4254H78.6472L88.6806 0ZM93.1039 8.87016L91.0181 15.1547H95.1537L93.1039 8.87016Z" fill="#E13C52"/>
<path d="M108.868 21.3674C108.868 20.721 108.988 20.1225 109.228 19.5718C109.492 18.9972 109.839 18.5064 110.271 18.0994C110.726 17.6685 111.242 17.3333 111.817 17.0939C112.417 16.8306 113.04 16.6989 113.687 16.6989C114.311 16.6989 114.898 16.8306 115.449 17.0939C116.025 17.3333 116.528 17.6685 116.96 18.0994C117.391 18.5064 117.727 18.9972 117.967 19.5718C118.23 20.1225 118.362 20.721 118.362 21.3674C118.362 22.0138 118.23 22.6243 117.967 23.1989C117.727 23.7735 117.391 24.2643 116.96 24.6713C116.528 25.0783 116.025 25.4015 115.449 25.6409C114.898 25.8803 114.311 26 113.687 26C113.04 26 112.417 25.8803 111.817 25.6409C111.242 25.4015 110.726 25.0783 110.271 24.6713C109.839 24.2643 109.492 23.7735 109.228 23.1989C108.988 22.6243 108.868 22.0138 108.868 21.3674Z" fill="#E13C52"/>
<path d="M130.458 6.64365V9.76796H132.76C133.359 9.76796 133.851 9.63628 134.234 9.37293C134.618 9.08563 134.81 8.65469 134.81 8.08011C134.81 7.60129 134.606 7.24217 134.198 7.00276C133.791 6.76335 133.251 6.64365 132.58 6.64365H130.458ZM130.458 15.2624V18.7099H133.011C133.683 18.7099 134.222 18.5663 134.63 18.279C135.061 17.9678 135.277 17.5249 135.277 16.9503C135.277 16.6151 135.181 16.3398 134.989 16.1243C134.822 15.9088 134.606 15.7413 134.342 15.6215C134.078 15.4779 133.791 15.3821 133.479 15.3343C133.191 15.2864 132.916 15.2624 132.652 15.2624H130.458ZM139.125 12.2099C139.724 12.3536 140.312 12.593 140.887 12.9282C141.462 13.2394 141.978 13.6464 142.433 14.1492C142.889 14.628 143.249 15.1906 143.512 15.837C143.776 16.4834 143.908 17.2017 143.908 17.9917C143.908 19.3803 143.62 20.5534 143.045 21.511C142.493 22.4447 141.75 23.2109 140.815 23.8094C139.904 24.384 138.849 24.8029 137.65 25.0663C136.476 25.3057 135.265 25.4254 134.018 25.4254H122.475V0H132.939C133.97 0 135.061 0.0837934 136.212 0.25138C137.387 0.395026 138.466 0.70626 139.449 1.18508C140.432 1.63996 141.247 2.32228 141.894 3.23204C142.541 4.11786 142.865 5.29098 142.865 6.75138C142.865 8.11602 142.517 9.24125 141.822 10.1271C141.151 11.0129 140.252 11.6713 139.125 12.1022V12.2099Z" fill="#E13C52"/>
<path d="M147.409 0H156.04V25.4254H147.409V0Z" fill="#E13C52"/>
<path d="M159.998 18.279L169.528 7.07458H160.394V0H180.712V6.1768L170.571 18.1354H181V25.4254H159.998V18.279Z" fill="#E13C52"/>
</svg>
