<svg width="47" height="47" viewBox="0 0 47 47" fill="none" xmlns="http://www.w3.org/2000/svg">
<path d="M33.2917 16.646V20.5627" stroke="#323232" stroke-width="2.5" stroke-linecap="round" stroke-linejoin="round"/>
<path d="M28.7228 18.9312V24.3264C28.7228 24.9687 28.4173 25.5679 27.8886 25.9342C27.0034 26.5452 25.4661 27.352 23.5117 27.352C21.5573 27.352 20.0102 26.5432 19.1192 25.9342C18.5865 25.5699 18.2791 24.9687 18.2791 24.3224V18.9312" stroke="#323232" stroke-width="2.5" stroke-linecap="round" stroke-linejoin="round"/>
<path d="M36.0901 33.2917H10.9099C8.12904 33.2917 5.875 31.0376 5.875 28.2568V10.9099C5.875 8.12904 8.12904 5.875 10.9099 5.875H36.0882C38.871 5.875 41.125 8.12904 41.125 10.9099V28.2548C41.125 31.0376 38.871 33.2917 36.0901 33.2917V33.2917Z" stroke="#323232" stroke-width="2.5" stroke-linecap="round" stroke-linejoin="round"/>
<path d="M27.4167 33.2915L28.3959 41.1248" stroke="#323232" stroke-width="2.5" stroke-linecap="round" stroke-linejoin="round"/>
<path d="M19.5834 33.2915L18.6042 41.1248" stroke="#323232" stroke-width="2.5" stroke-linecap="round" stroke-linejoin="round"/>
<path d="M15.9409 41.125H31.0593" stroke="#323232" stroke-width="2.5" stroke-linecap="round" stroke-linejoin="round"/>
<path d="M13.7083 16.6458L23.4999 21.5417L33.2916 16.6458L23.4999 11.75L13.7083 16.6458Z" stroke="#323232" stroke-width="2.5" stroke-linecap="round" stroke-linejoin="round"/>
</svg>
