<svg width="39" height="39" viewBox="0 0 39 39" fill="none" xmlns="http://www.w3.org/2000/svg">
<path d="M33.6958 8.99805V12.248H30.4458H33.6958" stroke="#323232" stroke-width="2" stroke-linecap="round" stroke-linejoin="round"/>
<path d="M32.9876 12.2494C30.3827 7.53361 25.3209 4.33398 19.5001 4.33398C11.1232 4.33398 4.33398 11.1249 4.33398 19.5001C4.33398 27.8754 11.1232 34.6662 19.5001 34.6662C27.877 34.6662 34.6662 27.8754 34.6662 19.5001" stroke="#323232" stroke-width="2" stroke-linecap="round" stroke-linejoin="round"/>
<path d="M14.354 25.168C12.758 25.168 11.484 24.6033 10.532 23.474L12.016 22.06C12.716 22.844 13.5047 23.236 14.382 23.236C14.7927 23.236 15.124 23.1287 15.376 22.914C15.6373 22.69 15.768 22.3913 15.768 22.018C15.768 21.6167 15.6 21.3087 15.264 21.094C14.928 20.8793 14.4567 20.772 13.85 20.772H12.954L12.618 19.4L14.956 17.048H11.106V15.2H17.728V16.824L15.25 19.19C17.0047 19.4887 17.882 20.4127 17.882 21.962C17.882 22.9047 17.56 23.6747 16.916 24.272C16.2813 24.8693 15.4273 25.168 14.354 25.168ZM26.9413 23.726C26.1293 24.6873 25.0793 25.168 23.7913 25.168C22.5033 25.168 21.458 24.6873 20.6553 23.726C19.8526 22.7647 19.4513 21.556 19.4513 20.1C19.4513 18.6533 19.8573 17.4493 20.6693 16.488C21.4813 15.5173 22.5313 15.032 23.8193 15.032C25.098 15.032 26.1386 15.5127 26.9413 16.474C27.7533 17.4353 28.1593 18.644 28.1593 20.1C28.1593 21.5467 27.7533 22.7553 26.9413 23.726ZM22.2513 22.34C22.6526 22.928 23.1753 23.222 23.8193 23.222C24.4633 23.222 24.9766 22.9327 25.3593 22.354C25.7513 21.766 25.9473 21.0147 25.9473 20.1C25.9473 19.204 25.7466 18.462 25.3453 17.874C24.944 17.2767 24.426 16.978 23.7913 16.978C23.1566 16.978 22.6433 17.272 22.2513 17.86C21.8593 18.4387 21.6633 19.1853 21.6633 20.1C21.6633 21.0053 21.8593 21.752 22.2513 22.34Z" fill="#2D2D2D"/>
</svg>
