<svg width="31" height="31" viewBox="0 0 31 31" fill="none" xmlns="http://www.w3.org/2000/svg">
<path d="M11.625 8.61531H19.375" stroke="#323232" stroke-width="2" stroke-linecap="round" stroke-linejoin="round"/>
<path d="M9.04175 13.782H21.9584" stroke="#323232" stroke-width="2" stroke-linecap="round" stroke-linejoin="round"/>
<path d="M18.0118 19.6081C19.399 20.9953 19.399 23.2443 18.0118 24.6315C16.6246 26.0187 14.3755 26.0187 12.9884 24.6315C11.6012 23.2443 11.6012 20.9953 12.9884 19.6081C14.3755 18.2209 16.6246 18.2209 18.0118 19.6081" stroke="#323232" stroke-width="2" stroke-linecap="round" stroke-linejoin="round"/>
<path d="M19.0521 22.1198L22.6042 25.6719L19.2136 29.0625L15.8101 25.659" stroke="#323232" stroke-width="2" stroke-linecap="round" stroke-linejoin="round"/>
<path d="M15.1899 25.659L11.7864 29.0625L8.39575 25.6719L11.9478 22.1198" stroke="#323232" stroke-width="2" stroke-linecap="round" stroke-linejoin="round"/>
<path d="M8.39583 25.6719H6.45833C5.03104 25.6719 3.875 24.5158 3.875 23.0885V5.8125C3.875 4.38521 5.03104 3.22917 6.45833 3.22917H24.5417C25.969 3.22917 27.125 4.38521 27.125 5.8125V23.0885C27.125 24.5158 25.969 25.6719 24.5417 25.6719H22.6042" stroke="#323232" stroke-width="2" stroke-linecap="round" stroke-linejoin="round"/>
</svg>
