<svg width="127" height="860" viewBox="0 0 127 860" fill="none" xmlns="http://www.w3.org/2000/svg">
<path d="M119.304 785.421L119.304 825.615L33.8702 825.615L33.8702 855L0 855L-4.32588e-06 756.035L33.8702 756.035L33.8702 785.421L119.304 785.421Z" stroke="#EDF0F4" stroke-width="9"/>
<path d="M-4.86189e-06 743.773L-8.45695e-06 661.528L33.3646 661.528L33.3646 705.943L43.6437 705.943L43.6437 664.23L74.8177 664.23L74.8177 705.943L85.9392 705.943L85.9392 658.657L119.304 658.657L119.304 743.773L-4.86189e-06 743.773Z" stroke="#EDF0F4" stroke-width="9"/>
<path d="M51.9006 606.381L119.304 604.523L119.304 642.015L-9.30986e-06 642.015L-1.16057e-05 589.493L64.2017 567.876L64.2017 567.032L-1.34069e-05 548.286L-1.57765e-05 494.075L119.304 494.075L119.304 533.086L52.2376 531.904L52.0691 532.918L119.304 555.21L119.304 583.582L51.9006 605.537L51.9006 606.381Z" stroke="#EDF0F4" stroke-width="9"/>
<path d="M-1.82039e-05 438.544L-2.00715e-05 395.817L119.304 349.206L119.304 392.946L101.779 399.195L101.779 437.193L119.304 443.104L119.304 485.662L-1.82039e-05 438.544ZM41.6215 417.772L71.1105 427.567L71.1105 408.146L41.6215 417.772Z" stroke="#EDF0F4" stroke-width="9"/>
<path d="M100.262 343.74C97.2293 343.74 94.4208 343.177 91.837 342.051C89.1409 340.812 86.8379 339.18 84.9282 337.153C82.9061 335.014 81.3333 332.594 80.2099 329.891C78.9742 327.077 78.3563 324.149 78.3563 321.11C78.3563 318.182 78.9742 315.424 80.2099 312.834C81.3333 310.132 82.9061 307.768 84.9282 305.741C86.8379 303.715 89.1409 302.139 91.837 301.013C94.4208 299.774 97.2293 299.155 100.262 299.155C103.296 299.155 106.16 299.774 108.856 301.013C111.552 302.139 113.855 303.715 115.765 305.741C117.675 307.768 119.192 310.132 120.315 312.834C121.438 315.424 122 318.182 122 321.11C122 324.149 121.438 327.077 120.315 329.891C119.192 332.594 117.675 335.014 115.765 337.153C113.855 339.18 111.552 340.812 108.856 342.051C106.16 343.177 103.296 343.74 100.262 343.74Z" stroke="#EDF0F4" stroke-width="9"/>
<path d="M31.174 242.351L45.8342 242.351L45.8342 231.543C45.8342 228.728 45.2164 226.42 43.9806 224.619C42.6326 222.817 40.6105 221.917 37.9143 221.917C35.6676 221.917 33.9825 222.874 32.8591 224.788C31.7357 226.702 31.174 229.235 31.174 232.387L31.174 242.351ZM71.616 242.351L87.7928 242.351L87.7928 230.361C87.7928 227.208 87.1188 224.675 85.7707 222.761C84.3103 220.734 82.232 219.721 79.5359 219.721C77.9632 219.721 76.6713 220.172 75.6602 221.072C74.6492 221.86 73.8628 222.874 73.3011 224.112C72.6271 225.351 72.1777 226.702 71.953 228.165C71.7283 229.516 71.616 230.811 71.616 232.05L71.616 242.351ZM57.2928 201.651C57.9668 198.836 59.0902 196.078 60.663 193.376C62.1234 190.674 64.0331 188.253 66.3923 186.114C68.639 183.975 71.279 182.286 74.3121 181.047C77.3453 179.809 80.7155 179.19 84.4226 179.19C90.9383 179.19 96.4429 180.541 100.936 183.243C105.318 185.832 108.913 189.322 111.721 193.713C114.417 197.992 116.383 202.946 117.619 208.575C118.742 214.092 119.304 219.777 119.304 225.632L119.304 279.843L-2.51409e-05 279.843L-2.72891e-05 230.698C-2.75007e-05 225.857 0.393157 220.734 1.17953 215.33C1.85356 209.813 3.31396 204.747 5.56075 200.131C7.69518 195.515 10.8968 191.687 15.1657 188.647C19.3223 185.607 24.8269 184.087 31.6795 184.087C38.0828 184.087 43.3628 185.72 47.5193 188.985C51.6759 192.137 54.7652 196.359 56.7873 201.651L57.2928 201.651Z" stroke="#EDF0F4" stroke-width="9"/>
<path d="M-3.02593e-05 162.747L-3.2031e-05 122.216L119.304 122.216L119.304 162.747L-3.02593e-05 162.747Z" stroke="#EDF0F4" stroke-width="9"/>
<path d="M85.7707 103.627L33.1961 58.8733L33.1961 101.769L-3.29248e-05 101.769L-3.70956e-05 6.35108L28.9834 6.35108L85.0967 53.9757L85.0967 4.99996L119.304 4.99996L119.304 103.627L85.7707 103.627Z" stroke="#EDF0F4" stroke-width="9"/>
</svg>
